<svg width="40" height="40" viewBox="0 0 34 34" fill="none" xmlns="http://www.w3.org/2000/svg">
<g id="discount-percent-coupon--free-tuition">
<path id="Coupon" d="M3.638 30.3571C3.15993 30.3568 2.68661 30.2623 2.24505 30.0791C1.8035 29.8958 1.40236 29.6274 1.06454 29.2891C0.726721 28.9509 0.458836 28.5494 0.276182 28.1076C0.0935283 27.6658 -0.00031822 27.1923 8.10678e-07 26.7143V21.7843C0.000323703 21.5162 0.089359 21.2557 0.253221 21.0435C0.417083 20.8313 0.646558 20.6793 0.905858 20.6113C1.70455 20.4024 2.41148 19.9347 2.91602 19.2812C3.42055 18.6278 3.69424 17.8255 3.69424 17C3.69424 16.1744 3.42055 15.3722 2.91602 14.7187C2.41148 14.0653 1.70455 13.5975 0.905858 13.3887C0.646558 13.3206 0.417083 13.1686 0.253221 12.9564C0.089359 12.7442 0.000323703 12.4838 8.10678e-07 12.2157V7.28568C8.10678e-07 5.27482 1.62714 3.64282 3.638 3.64282H30.362C32.3729 3.64282 34 5.27482 34 7.28568V12.2254C34.0002 12.4922 33.9126 12.7517 33.7506 12.9637C33.5887 13.1757 33.3614 13.3285 33.1039 13.3984C32.3135 13.6136 31.6159 14.0828 31.1186 14.7337C30.6213 15.3845 30.3519 16.1809 30.3519 17C30.3519 17.8191 30.6213 18.6154 31.1186 19.2663C31.6159 19.9171 32.3135 20.3863 33.1039 20.6015C33.3614 20.6714 33.5887 20.8242 33.7506 21.0362C33.9126 21.2483 34.0002 21.5077 34 21.7745V26.7143C34 28.7251 32.3729 30.3571 30.362 30.3571H3.638Z" fill="#B2CAFF"/>
<path id="Percent" fill-rule="evenodd" clip-rule="evenodd" d="M24.1935 12.002L12.0506 24.1449C11.7632 24.4156 11.3816 24.5636 10.9868 24.5575C10.5921 24.5515 10.2152 24.3919 9.93615 24.1125C9.65713 23.8332 9.49793 23.4561 9.49234 23.0614C9.48675 22.6666 9.63521 22.2852 9.90621 21.998L22.0491 9.85517C22.1885 9.70747 22.3561 9.58926 22.542 9.50752C22.7279 9.42578 22.9283 9.38218 23.1314 9.3793C23.3345 9.37643 23.5361 9.41433 23.7242 9.49077C23.9124 9.56722 24.0833 9.68064 24.2268 9.82433C24.3703 9.96802 24.4836 10.139 24.5598 10.3273C24.636 10.5155 24.6737 10.7172 24.6706 10.9202C24.6675 11.1233 24.6237 11.3237 24.5417 11.5095C24.4598 11.6953 24.3413 11.8628 24.1935 12.002ZM12.1939 9.71431C11.5498 9.71431 10.9321 9.97018 10.4767 10.4256C10.0212 10.8811 9.76535 11.4988 9.76535 12.1429C9.76535 12.787 10.0212 13.4047 10.4767 13.8601C10.9321 14.3156 11.5498 14.5715 12.1939 14.5715C12.838 14.5715 13.4557 14.3156 13.9112 13.8601C14.3666 13.4047 14.6225 12.787 14.6225 12.1429C14.6225 11.4988 14.3666 10.8811 13.9112 10.4256C13.4557 9.97018 12.838 9.71431 12.1939 9.71431ZM21.9082 19.4286C21.5893 19.4286 21.2735 19.4914 20.9788 19.6135C20.6842 19.7355 20.4165 19.9144 20.1909 20.1399C19.9654 20.3654 19.7865 20.6331 19.6645 20.9278C19.5425 21.2224 19.4796 21.5382 19.4796 21.8572C19.4796 22.1761 19.5425 22.4919 19.6645 22.7865C19.7865 23.0812 19.9654 23.3489 20.1909 23.5744C20.4165 23.7999 20.6842 23.9788 20.9788 24.1009C21.2735 24.2229 21.5893 24.2857 21.9082 24.2857C22.5523 24.2857 23.17 24.0299 23.6255 23.5744C24.0809 23.119 24.3368 22.5013 24.3368 21.8572C24.3368 21.2131 24.0809 20.5954 23.6255 20.1399C23.17 19.6845 22.5523 19.4286 21.9082 19.4286Z" fill="#2469FF"/>
</g>
</svg>
