<?xml version="1.0" encoding="utf-8"?>
<!-- Generator: Adobe Illustrator 23.0.3, SVG Export Plug-In . SVG Version: 6.00 Build 0)  -->
<svg version="1.1" id="Layer_1" xmlns="http://www.w3.org/2000/svg" xmlns:xlink="http://www.w3.org/1999/xlink" x="0px" y="0px"
	 viewBox="0 0 52 60" style="enable-background:new 0 0 52 60;" xml:space="preserve">
<style type="text/css">
	.st0{fill:url(#SVGID_1_);}
	.st1{fill:#82C0FF;}
</style>
<linearGradient id="SVGID_1_" gradientUnits="userSpaceOnUse" x1="15.7897" y1="18.2038" x2="53.7264" y2="56.9138">
	<stop  offset="0" style="stop-color:#2C7DE9"/>
	<stop  offset="0.1176" style="stop-color:#2C77E5"/>
	<stop  offset="0.67" style="stop-color:#2B5DD6"/>
	<stop  offset="1" style="stop-color:#2B53D0"/>
</linearGradient>
<path class="st0" d="M0.8,30.5c1.5-2.1,4.4-5.1,4.4-7.1c0-1-1.5-2.4-1.2-4.4C6.3,5.4,15.8,0,27.9,0C40,0,52,7.9,52,20.5
	c0,12.6-8,16-8,24.2c0,2.2,1.2,5.9,1.9,7.8c0.1,0.3,0.1,0.7-0.1,0.9c-0.2,0.3-0.4,0.5-0.8,0.6l-25.6,6c-0.4,0.1-0.9,0-1.1-0.4
	c-0.3-0.3-0.4-0.8-0.2-1.2c0.3-0.8,0.6-1.8,0.4-2.8c-0.7-4.1-4.8-3.6-8.8-3.6c-6,0-3-4.9-3-7.3C6.8,43.5,4,44.2,4,42
	c0-1,1.9-1.4,1.2-1.8c-2.7-1.4-0.3-2.6-0.3-3.9c0-1.5-2-1.6-3.7-2.3C-0.5,33.3-0.2,31.9,0.8,30.5z"/>
<path class="st1" d="M31.5,10.5c-1.8,0-3.4,0.8-4.5,2.2c-1.9-2.5-5.4-3-7.9-1.1c-1.4,1.1-2.2,2.7-2.2,4.5c0,6.7,9.4,12,9.7,12.3
	c0.1,0.1,0.2,0.1,0.4,0.1c0.1,0,0.3,0,0.4-0.1c1.7-1,3.3-2.2,4.8-3.5c3.3-2.9,4.9-5.9,4.9-8.7C37.1,13,34.6,10.5,31.5,10.5z"/>
</svg>
