<?xml version="1.0" encoding="utf-8"?>
<!-- Generator: Adobe Illustrator 23.0.3, SVG Export Plug-In . SVG Version: 6.00 Build 0)  -->
<svg version="1.1" id="Layer_1" xmlns="http://www.w3.org/2000/svg" xmlns:xlink="http://www.w3.org/1999/xlink" x="0px" y="0px"
	 viewBox="0 0 67.6 67.6" style="enable-background:new 0 0 67.6 67.6;" xml:space="preserve">
<style type="text/css">
	.st0{fill:url(#SVGID_1_);}
	.st1{fill:url(#SVGID_2_);}
	.st2{fill:#82C0FF;}
</style>
<linearGradient id="SVGID_1_" gradientUnits="userSpaceOnUse" x1="0" y1="34.849" x2="17.7031" y2="34.849">
	<stop  offset="0" style="stop-color:#2C7DE9"/>
	<stop  offset="0.1176" style="stop-color:#2C77E5"/>
	<stop  offset="0.67" style="stop-color:#2B5DD6"/>
	<stop  offset="1" style="stop-color:#2B53D0"/>
</linearGradient>
<path class="st0" d="M16.9,2.1H0.8C0.4,2.1,0,2.4,0,2.9v63.9c0,0.5,0.4,0.8,0.8,0.8h16.1c0.4,0,0.8-0.4,0.8-0.8V2.9
	C17.7,2.4,17.3,2.1,16.9,2.1z M6.1,10.4h5.4v25.2H6.1V10.4z M8.9,55.2c-2.1,0-3.8-1.7-3.8-3.8c0-2.1,1.7-3.8,3.8-3.8
	c2.1,0,3.8,1.7,3.8,3.8C12.7,53.5,11,55.2,8.9,55.2z"/>
<linearGradient id="SVGID_2_" gradientUnits="userSpaceOnUse" x1="20.1621" y1="34.849" x2="37.8691" y2="34.849">
	<stop  offset="0" style="stop-color:#2C7DE9"/>
	<stop  offset="0.1176" style="stop-color:#2C77E5"/>
	<stop  offset="0.67" style="stop-color:#2B5DD6"/>
	<stop  offset="1" style="stop-color:#2B53D0"/>
</linearGradient>
<path class="st1" d="M37,2.1H21c-0.5,0-0.8,0.4-0.8,0.8v63.9c0,0.5,0.4,0.8,0.8,0.8H37c0.5,0,0.8-0.4,0.8-0.8V2.9
	C37.9,2.4,37.5,2.1,37,2.1z M26.3,10.4h5.4v25.2h-5.4V10.4z M29,55.2c-2.1,0-3.8-1.7-3.8-3.8c0-2.1,1.7-3.8,3.8-3.8s3.8,1.7,3.8,3.8
	C32.9,53.5,31.1,55.2,29,55.2z"/>
<path class="st2" d="M67.6,63.7L57,0.7C56.9,0.2,56.5-0.1,56,0L40.2,2.7c-0.4,0.1-0.7,0.5-0.7,0.9l10.6,63.1
	c0.1,0.4,0.5,0.7,0.9,0.7l15.8-2.7C67.4,64.6,67.7,64.2,67.6,63.7z M50.8,34.5L46.8,9.6l5.3-0.9l4.1,24.9L50.8,34.5z M56.9,53.7
	c-2.1,0.4-4.1-1.1-4.4-3.2c-0.4-2.1,1.1-4.1,3.1-4.4c2.1-0.4,4.1,1.1,4.4,3.1C60.4,51.4,59,53.4,56.9,53.7z"/>
</svg>
