<?xml version="1.0" encoding="utf-8"?>
<!-- Generator: Adobe Illustrator 23.0.3, SVG Export Plug-In . SVG Version: 6.00 Build 0)  -->
<svg version="1.1" id="Layer_1" xmlns="http://www.w3.org/2000/svg" xmlns:xlink="http://www.w3.org/1999/xlink" x="0px" y="0px"
	 viewBox="0 0 602.3 412.7" style="enable-background:new 0 0 602.3 412.7;" xml:space="preserve">
<style type="text/css">
	.st0{fill:url(#SVGID_1_);}
	.st1{fill:url(#SVGID_2_);}
	.st2{fill:#82C0FF;}
</style>
<linearGradient id="SVGID_1_" gradientUnits="userSpaceOnUse" x1="495.9307" y1="152.8758" x2="351.7283" y2="398.0204">
	<stop  offset="0" style="stop-color:#2C7DE9"/>
	<stop  offset="0.1176" style="stop-color:#2C77E5"/>
	<stop  offset="0.67" style="stop-color:#2B5DD6"/>
	<stop  offset="1" style="stop-color:#2B53D0"/>
</linearGradient>
<path class="st0" d="M585.3,52.2L585.3,52.2c-4.7-0.5-9.1,0.8-12.7,3.3c-3.2,2-5.7,5.1-7,9c-9.2,27.9-32.9,89.1-76.7,139.6
	c-16.6,18-41.9,42.6-73.4,64.4c-0.8-44.3,53-61.3,71.3-91.7c5.4-8.9,10.8-25.2,4.6-31.4l0,0c-4.9-3.6-9.8-1.9-14.8,0.7l-99.8,66.7
	c0,0-28.3,18.8-40.2,40.9l-0.2,0.3c0,0,0,0,0,0c0,0,0,0.1-0.1,0.1l0,0l0,0c-8.8,16.6-15.5,34.4-20,53.1c-4.2,17.3-6.5,35.4-6.9,53.8
	c-0.4,19.4,1.4,34.9,2.9,44.2c0.8,5,5.6,8.2,10.5,7.2l0,0c1.4-0.4,4.6-2.6,4.6-2.6L487,303.2c0,0,53.5-43.9,68.2-83.9
	c12.3-24.3,22.8-51,31.3-79.3c8.2-27.2,12.9-50.6,15.5-66C603.8,63.2,596.2,53.2,585.3,52.2z"/>
<linearGradient id="SVGID_2_" gradientUnits="userSpaceOnUse" x1="42.5531" y1="90.6315" x2="271.6752" y2="390.2523">
	<stop  offset="0" style="stop-color:#2C7DE9"/>
	<stop  offset="0.1176" style="stop-color:#2C77E5"/>
	<stop  offset="0.67" style="stop-color:#2B5DD6"/>
	<stop  offset="1" style="stop-color:#2B53D0"/>
</linearGradient>
<path class="st1" d="M16.9,53.2L16.9,53.2c4.7-0.5,9.1,0.8,12.7,3.3c3.2,2,5.7,5.1,7,9c9.3,27.9,33.3,88.9,77.2,139.3
	c16.7,18,42,42.5,73.6,64.2c0.7-44.3-53.3-61.1-71.6-91.4c-5.4-8.9-10.9-25.2-4.7-31.3l0,0c4.9-3.6,9.8-2,14.8,0.6L226,213.1
	c0,0,28.3,18.7,40.4,40.8l0.2,0.3c0,0,0,0,0,0c0,0,0,0.1,0.1,0.1l0,0l0,0c8.8,16.6,15.6,34.3,20.2,53c4.3,17.3,6.6,35.4,7.1,53.7
	c0.5,19.4-1.3,34.9-2.8,44.2c-0.8,5-5.6,8.2-10.5,7.2l0,0c-1.4-0.3-4.6-2.6-4.6-2.6l-160-106.1c0,0-53.7-43.7-68.5-83.6
	C35.3,196,24.6,169.3,16,141C7.7,113.9,2.9,90.5,0.3,75C-1.6,64.3,6.1,54.3,16.9,53.2z"/>
<path class="st2" d="M358.7,0c-25.3,0-47.5,16.2-55.1,40.4l-3.2,10.1c-0.4,1.3-1.5,2.1-2.7,2.2c-1.3,0.1-2.8-0.6-3.3-2.2l-3.2-10.1
	c-6.9-21.7-25.5-37-47.6-39.9c-2.5-0.3-5-0.5-7.5-0.5c-31.9,0-57.8,25.9-57.8,57.8c0,16.5,7.1,32.2,19.4,43.2l0.7,0.6l99,86.6
	l0.1-0.1l0.1,0.1l0.2-0.2l49-42.9l50.5-44.2c12.3-11,19.4-26.7,19.4-43.2C416.6,25.9,390.6,0,358.7,0z"/>
</svg>
