<?xml version="1.0" encoding="utf-8"?>
<!-- Generator: Adobe Illustrator 23.0.3, SVG Export Plug-In . SVG Version: 6.00 Build 0)  -->
<svg version="1.1" id="Layer_1" xmlns="http://www.w3.org/2000/svg" xmlns:xlink="http://www.w3.org/1999/xlink" x="0px" y="0px"
	 viewBox="0 0 65.7 73.5" style="enable-background:new 0 0 65.7 73.5;" xml:space="preserve">
<style type="text/css">
	.st0{fill:url(#SVGID_1_);}
	.st1{fill:url(#SVGID_2_);}
	.st2{fill:url(#SVGID_3_);}
	.st3{fill:url(#SVGID_4_);}
	.st4{fill:url(#SVGID_5_);}
	.st5{fill:url(#SVGID_6_);}
	.st6{fill:url(#SVGID_7_);}
	.st7{fill:url(#SVGID_8_);}
	.st8{fill:url(#SVGID_9_);}
	.st9{fill:url(#SVGID_10_);}
	.st10{fill:url(#SVGID_11_);}
	.st11{fill:url(#SVGID_12_);}
	.st12{fill:url(#SVGID_13_);}
	.st13{fill:url(#SVGID_14_);}
	.st14{fill:url(#SVGID_15_);}
	.st15{fill:url(#SVGID_16_);}
	.st16{fill:url(#SVGID_17_);}
	.st17{fill:url(#SVGID_18_);}
	.st18{fill:url(#SVGID_19_);}
	.st19{fill:url(#SVGID_20_);}
	.st20{fill:#FFFFFF;}
	.st21{fill:#B8DFFF;}
	.st22{fill:#2254E0;}
</style>
<linearGradient id="SVGID_1_" gradientUnits="userSpaceOnUse" x1="9.1719" y1="5.4921" x2="56.48" y2="5.4921">
	<stop  offset="0" style="stop-color:#2C88FF"/>
	<stop  offset="0.2799" style="stop-color:#2A75F6"/>
	<stop  offset="0.7306" style="stop-color:#285BEA"/>
	<stop  offset="1" style="stop-color:#2751E6"/>
</linearGradient>
<path class="st0" d="M23.7,5.6c0-0.1,0.1-0.2,0.1-0.3C23.8,5.4,23.7,5.5,23.7,5.6z"/>
<linearGradient id="SVGID_2_" gradientUnits="userSpaceOnUse" x1="9.1719" y1="9.2979" x2="56.48" y2="9.2979">
	<stop  offset="0" style="stop-color:#2C88FF"/>
	<stop  offset="0.2799" style="stop-color:#2A75F6"/>
	<stop  offset="0.7306" style="stop-color:#285BEA"/>
	<stop  offset="1" style="stop-color:#2751E6"/>
</linearGradient>
<polygon class="st1" points="23.1,7.9 22.4,10.7 22.4,10.7 "/>
<linearGradient id="SVGID_3_" gradientUnits="userSpaceOnUse" x1="9.1719" y1="5.3724" x2="56.48" y2="5.3724">
	<stop  offset="0" style="stop-color:#2C88FF"/>
	<stop  offset="0.2799" style="stop-color:#2A75F6"/>
	<stop  offset="0.7306" style="stop-color:#285BEA"/>
	<stop  offset="1" style="stop-color:#2751E6"/>
</linearGradient>
<path class="st2" d="M31.6,0h2.5c3.8,0,7.2,2.6,8.1,6.3l1.1,4.4h0l-1.1-4.4C41.2,2.6,37.9,0,34.1,0L31.6,0c-3.3,0-6.3,2-7.6,5
	C25.3,2,28.2,0,31.6,0z"/>
<linearGradient id="SVGID_4_" gradientUnits="userSpaceOnUse" x1="9.1719" y1="23.5518" x2="56.48" y2="23.5518">
	<stop  offset="0" style="stop-color:#2C88FF"/>
	<stop  offset="0.2799" style="stop-color:#2A75F6"/>
	<stop  offset="0.7306" style="stop-color:#285BEA"/>
	<stop  offset="1" style="stop-color:#2751E6"/>
</linearGradient>
<polygon class="st3" points="47.4,27.6 45.4,19.5 45.4,19.5 "/>
<linearGradient id="SVGID_5_" gradientUnits="userSpaceOnUse" x1="9.1719" y1="41.8066" x2="56.48" y2="41.8066">
	<stop  offset="0" style="stop-color:#2C88FF"/>
	<stop  offset="0.2799" style="stop-color:#2A75F6"/>
	<stop  offset="0.7306" style="stop-color:#285BEA"/>
	<stop  offset="1" style="stop-color:#2751E6"/>
</linearGradient>
<polygon class="st4" points="52,46.3 52,46.3 49.8,37.3 49.8,37.3 "/>
<linearGradient id="SVGID_6_" gradientUnits="userSpaceOnUse" x1="9.1719" y1="59.7141" x2="56.48" y2="59.7141">
	<stop  offset="0" style="stop-color:#2C88FF"/>
	<stop  offset="0.2799" style="stop-color:#2A75F6"/>
	<stop  offset="0.7306" style="stop-color:#285BEA"/>
	<stop  offset="1" style="stop-color:#2751E6"/>
</linearGradient>
<polygon class="st5" points="54.2,55.1 54.2,55.1 56.5,64.4 56.5,64.4 "/>
<linearGradient id="SVGID_7_" gradientUnits="userSpaceOnUse" x1="9.1673" y1="59.7143" x2="56.476" y2="59.7143">
	<stop  offset="0" style="stop-color:#2C88FF"/>
	<stop  offset="0.2799" style="stop-color:#2A75F6"/>
	<stop  offset="0.7306" style="stop-color:#285BEA"/>
	<stop  offset="1" style="stop-color:#2751E6"/>
</linearGradient>
<polygon class="st6" points="11.5,55.1 11.5,55.1 9.2,64.4 56.5,64.4 56.5,64.4 9.2,64.4 "/>
<linearGradient id="SVGID_8_" gradientUnits="userSpaceOnUse" x1="9.1673" y1="41.8066" x2="56.476" y2="41.8066">
	<stop  offset="0" style="stop-color:#2C88FF"/>
	<stop  offset="0.2799" style="stop-color:#2A75F6"/>
	<stop  offset="0.7306" style="stop-color:#285BEA"/>
	<stop  offset="1" style="stop-color:#2751E6"/>
</linearGradient>
<polygon class="st7" points="15.9,37.3 15.9,37.3 13.6,46.3 13.6,46.3 "/>
<linearGradient id="SVGID_9_" gradientUnits="userSpaceOnUse" x1="9.1673" y1="6.7438" x2="56.476" y2="6.7438">
	<stop  offset="0" style="stop-color:#2C88FF"/>
	<stop  offset="0.2799" style="stop-color:#2A75F6"/>
	<stop  offset="0.7306" style="stop-color:#285BEA"/>
	<stop  offset="1" style="stop-color:#2751E6"/>
</linearGradient>
<path class="st8" d="M23.7,5.6c-0.1,0.2-0.1,0.5-0.2,0.7l-0.4,1.5l0.4-1.5C23.6,6.1,23.6,5.9,23.7,5.6z"/>
<linearGradient id="SVGID_10_" gradientUnits="userSpaceOnUse" x1="9.1673" y1="28.077" x2="56.476" y2="28.077">
	<stop  offset="0" style="stop-color:#2C88FF"/>
	<stop  offset="0.2799" style="stop-color:#2A75F6"/>
	<stop  offset="0.7306" style="stop-color:#285BEA"/>
	<stop  offset="1" style="stop-color:#2751E6"/>
</linearGradient>
<polygon class="st9" points="47.6,28.5 47.4,27.6 47.6,28.5 "/>
<linearGradient id="SVGID_11_" gradientUnits="userSpaceOnUse" x1="9.1673" y1="5.1673" x2="56.476" y2="5.1673">
	<stop  offset="0" style="stop-color:#2C88FF"/>
	<stop  offset="0.2799" style="stop-color:#2A75F6"/>
	<stop  offset="0.7306" style="stop-color:#285BEA"/>
	<stop  offset="1" style="stop-color:#2751E6"/>
</linearGradient>
<path class="st10" d="M23.8,5.3c0-0.1,0.1-0.2,0.1-0.4C23.9,5.1,23.9,5.2,23.8,5.3z"/>
<linearGradient id="SVGID_12_" gradientUnits="userSpaceOnUse" x1="9.1673" y1="24.013" x2="56.476" y2="24.013">
	<stop  offset="0" style="stop-color:#2C88FF"/>
	<stop  offset="0.2799" style="stop-color:#2A75F6"/>
	<stop  offset="0.7306" style="stop-color:#285BEA"/>
	<stop  offset="1" style="stop-color:#2751E6"/>
</linearGradient>
<polygon class="st11" points="20.3,19.5 20.2,19.5 18,28.5 18,28.5 "/>
<linearGradient id="SVGID_13_" gradientUnits="userSpaceOnUse" x1="9.1719" y1="41.8066" x2="56.48" y2="41.8066">
	<stop  offset="0" style="stop-color:#2C88FF"/>
	<stop  offset="0.2799" style="stop-color:#2A75F6"/>
	<stop  offset="0.7306" style="stop-color:#285BEA"/>
	<stop  offset="1" style="stop-color:#2751E6"/>
</linearGradient>
<polygon class="st12" points="49.8,37.3 15.9,37.3 13.6,46.3 52,46.3 "/>
<linearGradient id="SVGID_14_" gradientUnits="userSpaceOnUse" x1="9.1673" y1="41.8066" x2="56.476" y2="41.8066">
	<stop  offset="0" style="stop-color:#2C7DE9"/>
	<stop  offset="0.1176" style="stop-color:#2C77E5"/>
	<stop  offset="0.67" style="stop-color:#2B5DD6"/>
	<stop  offset="1" style="stop-color:#2B53D0"/>
</linearGradient>
<polygon class="st13" points="49.8,37.3 15.9,37.3 13.6,46.3 52,46.3 "/>
<linearGradient id="SVGID_15_" gradientUnits="userSpaceOnUse" x1="9.1719" y1="59.7141" x2="56.476" y2="59.7141">
	<stop  offset="0" style="stop-color:#2C88FF"/>
	<stop  offset="0.2799" style="stop-color:#2A75F6"/>
	<stop  offset="0.7306" style="stop-color:#285BEA"/>
	<stop  offset="1" style="stop-color:#2751E6"/>
</linearGradient>
<polygon class="st14" points="11.5,55.1 9.2,64.4 56.5,64.4 54.2,55.1 "/>
<linearGradient id="SVGID_16_" gradientUnits="userSpaceOnUse" x1="9.1719" y1="59.7141" x2="56.476" y2="59.7141">
	<stop  offset="0" style="stop-color:#2C7DE9"/>
	<stop  offset="0.1176" style="stop-color:#2C77E5"/>
	<stop  offset="0.67" style="stop-color:#2B5DD6"/>
	<stop  offset="1" style="stop-color:#2B53D0"/>
</linearGradient>
<polygon class="st15" points="11.5,55.1 9.2,64.4 56.5,64.4 54.2,55.1 "/>
<linearGradient id="SVGID_17_" gradientUnits="userSpaceOnUse" x1="9.1719" y1="24.013" x2="56.48" y2="24.013">
	<stop  offset="0" style="stop-color:#2C88FF"/>
	<stop  offset="0.2799" style="stop-color:#2A75F6"/>
	<stop  offset="0.7306" style="stop-color:#285BEA"/>
	<stop  offset="1" style="stop-color:#2751E6"/>
</linearGradient>
<polygon class="st16" points="20.3,19.5 18,28.5 47.6,28.5 47.4,27.6 45.4,19.5 "/>
<linearGradient id="SVGID_18_" gradientUnits="userSpaceOnUse" x1="9.1673" y1="24.013" x2="56.476" y2="24.013">
	<stop  offset="0" style="stop-color:#2C7DE9"/>
	<stop  offset="0.1176" style="stop-color:#2C77E5"/>
	<stop  offset="0.67" style="stop-color:#2B5DD6"/>
	<stop  offset="1" style="stop-color:#2B53D0"/>
</linearGradient>
<polygon class="st17" points="20.3,19.5 18,28.5 47.6,28.5 47.4,27.6 45.4,19.5 "/>
<linearGradient id="SVGID_19_" gradientUnits="userSpaceOnUse" x1="9.1719" y1="5.3747" x2="56.48" y2="5.3747">
	<stop  offset="0" style="stop-color:#2C88FF"/>
	<stop  offset="0.2799" style="stop-color:#2A75F6"/>
	<stop  offset="0.7306" style="stop-color:#285BEA"/>
	<stop  offset="1" style="stop-color:#2751E6"/>
</linearGradient>
<path class="st18" d="M43.2,10.7l-1.1-4.4C41.2,2.6,37.9,0,34.1,0h-2.5c-3.3,0-6.3,2-7.6,5c-0.1,0.1-0.1,0.2-0.1,0.4
	c0,0.1-0.1,0.2-0.1,0.3c-0.1,0.2-0.1,0.4-0.2,0.7l-0.4,1.5l-0.7,2.9H43.2z"/>
<linearGradient id="SVGID_20_" gradientUnits="userSpaceOnUse" x1="9.1673" y1="5.3747" x2="56.476" y2="5.3747">
	<stop  offset="0" style="stop-color:#2C7DE9"/>
	<stop  offset="0.1176" style="stop-color:#2C77E5"/>
	<stop  offset="0.67" style="stop-color:#2B5DD6"/>
	<stop  offset="1" style="stop-color:#2B53D0"/>
</linearGradient>
<path class="st19" d="M43.2,10.7l-1.1-4.4C41.2,2.6,37.9,0,34.1,0h-2.5c-3.3,0-6.3,2-7.6,5c-0.1,0.1-0.1,0.2-0.1,0.4
	c0,0.1-0.1,0.2-0.1,0.3c-0.1,0.2-0.1,0.4-0.2,0.7l-0.4,1.5l-0.7,2.9H43.2z"/>
<polygon class="st20" points="45.4,19.5 45.4,19.5 43.2,10.7 43.2,10.7 "/>
<polygon class="st20" points="22.4,10.7 22.4,10.7 22.1,12.1 "/>
<polygon class="st20" points="22.1,12.1 20.2,19.5 20.3,19.5 "/>
<polygon class="st21" points="43.2,10.7 22.4,10.7 22.1,12.1 20.3,19.5 45.4,19.5 "/>
<polygon class="st20" points="49.8,37.3 49.8,37.3 47.7,29 "/>
<polygon class="st20" points="18,28.5 18,28.5 15.9,37.3 15.9,37.3 "/>
<polygon class="st20" points="47.7,29 47.6,28.5 47.6,28.5 "/>
<polygon class="st21" points="47.7,29 47.6,28.5 18,28.5 15.9,37.3 49.8,37.3 "/>
<polygon class="st20" points="54.2,55.1 54.2,55.1 52,46.3 52,46.3 "/>
<polygon class="st20" points="13.6,46.3 13.6,46.3 11.5,55.1 11.5,55.1 "/>
<polygon class="st21" points="13.6,46.3 11.5,55.1 54.2,55.1 52,46.3 "/>
<path class="st22" d="M60.9,64H4.7C2.1,64,0,66.2,0,68.8c0,2.6,2.1,4.7,4.7,4.7h56.2c2.6,0,4.7-2.1,4.7-4.7
	C65.7,66.2,63.5,64,60.9,64z"/>
</svg>
