<?xml version="1.0" encoding="utf-8"?>
<!-- Generator: Adobe Illustrator 23.0.3, SVG Export Plug-In . SVG Version: 6.00 Build 0)  -->
<svg version="1.1" id="Layer_1" xmlns="http://www.w3.org/2000/svg" xmlns:xlink="http://www.w3.org/1999/xlink" x="0px" y="0px"
	 viewBox="0 0 148.4 160.3" style="enable-background:new 0 0 148.4 160.3;" xml:space="preserve">
<style type="text/css">
	.st0{fill:url(#SVGID_1_);}
	.st1{fill:#82C0FF;}
</style>
<linearGradient id="SVGID_1_" gradientUnits="userSpaceOnUse" x1="0" y1="117.3887" x2="148.3906" y2="117.3887">
	<stop  offset="0" style="stop-color:#2C7DE9"/>
	<stop  offset="0.1176" style="stop-color:#2C77E5"/>
	<stop  offset="0.67" style="stop-color:#2B5DD6"/>
	<stop  offset="1" style="stop-color:#2B53D0"/>
</linearGradient>
<path class="st0" d="M148.1,105.3c-1.6-10.3-9.7-16.3-20-16c0.3-6.9-0.3-11.3-0.3-11.3c0-2-1.7-3.6-3.9-3.6H4.4
	c-2.2,0-3.9,1.6-3.9,3.6c0,0-3.2,19.2,6.5,41.2c10.2,23,26,37.4,26,37.4c0,2,1.7,3.6,3.9,3.6h53.3c2.2,0,3.9-1.6,3.9-3.6
	c0,0,5.8-4.6,13-13.8c5.2,1.7,11.5,1.3,18.1-1.4C139.9,135.2,150.2,119.1,148.1,105.3z M124.1,133.3c-4,1.7-7.8,2-11.1,1.3
	c2.8-4.4,5.6-9.4,8.2-15c3.5-7.8,5.4-15.5,6.3-22.1c6.3,0.4,11.1,4.4,12.1,11C141,117.9,134,129,124.1,133.3z"/>
<path class="st1" d="M25.6,18.4c0,0-10.6,7.5-8.6,20.5c2,13,19.2,15.9,9.8,26.7c0,0,14-8.3,1.2-23.1C16.3,28.7,25.6,18.4,25.6,18.4z
	"/>
<path class="st1" d="M63.5,0c0,0-15.3,10.7-12.3,29.4c2.9,18.7,27.6,22.9,14.1,38.3c0,0,20.1-11.9,1.8-33.2C50,14.9,63.5,0,63.5,0z"
	/>
<path class="st1" d="M103.8,16.1c0,0-10.6,7.5-8.6,20.5c2,13,19.2,15.9,9.8,26.7c0,0,14-8.3,1.2-23.1
	C94.4,26.5,103.8,16.1,103.8,16.1z"/>
<g>
	<g>
		<path class="st1" d="M63.9,114.4c-2.4-5.5-5.1-11.6-2.5-17.5C54.3,99,49,106.4,49,115.1c0,9.9,6.7,17.9,15.1,18.8
			C69.6,127.4,67,121.4,63.9,114.4z"/>
		<path class="st1" d="M67.1,96.4c-3.8,4.6-2.1,9.2,1,16.2c2.7,6,5.9,13.3,2,20.7c7-2.2,12.2-9.5,12.2-18.2
			C82.2,105.3,75.6,97.2,67.1,96.4z"/>
	</g>
</g>
</svg>
