<?xml version="1.0" encoding="utf-8"?>
<!-- Generator: Adobe Illustrator 23.0.3, SVG Export Plug-In . SVG Version: 6.00 Build 0)  -->
<svg version="1.1" id="Layer_1" xmlns="http://www.w3.org/2000/svg" xmlns:xlink="http://www.w3.org/1999/xlink" x="0px" y="0px"
	 viewBox="0 0 127 82.5" style="enable-background:new 0 0 127 82.5;" xml:space="preserve">
<style type="text/css">
	.st0{fill:#82C0FF;}
	.st1{fill:url(#SVGID_1_);}
</style>
<path class="st0" d="M51.2,29.5H13.8C6.2,29.5,0,35.7,0,43.3v17.9C0,68.8,6.2,75,13.8,75H35c5.4,8.9,17,7.4,17,7.4
	c-3.4-1.3-6-4.4-7.8-7.4h7.1C58.8,75,65,68.8,65,61.2V43.3C65,35.7,58.8,29.5,51.2,29.5z M17.6,56.8c-2.5,0-4.6-2.1-4.6-4.6
	c0-2.5,2.1-4.6,4.6-4.6c2.5,0,4.6,2.1,4.6,4.6C22.2,54.8,20.1,56.8,17.6,56.8z M32.5,56.8c-2.5,0-4.6-2.1-4.6-4.6
	c0-2.5,2.1-4.6,4.6-4.6c2.5,0,4.6,2.1,4.6,4.6C37.1,54.8,35,56.8,32.5,56.8z M47.4,56.8c-2.5,0-4.6-2.1-4.6-4.6
	c0-2.5,2.1-4.6,4.6-4.6c2.5,0,4.6,2.1,4.6,4.6C52,54.8,49.9,56.8,47.4,56.8z"/>
<linearGradient id="SVGID_1_" gradientUnits="userSpaceOnUse" x1="52.6068" y1="30.3021" x2="126.9529" y2="30.3021">
	<stop  offset="0" style="stop-color:#2C7DE9"/>
	<stop  offset="0.1176" style="stop-color:#2C77E5"/>
	<stop  offset="0.67" style="stop-color:#2B5DD6"/>
	<stop  offset="1" style="stop-color:#2B53D0"/>
</linearGradient>
<path class="st1" d="M113.2,0H66.4c-7.6,0-13.8,6.2-13.8,13.8v24.5c0,7.6,6.2,13.8,13.8,13.8h10.1c-2.1,3.5-5.1,7-9,8.5
	c0,0,13.3,1.7,19.4-8.5h26.3c7.6,0,13.8-6.2,13.8-13.8V13.8C127,6.2,120.8,0,113.2,0z M72.7,31.2c-2.9,0-5.2-2.4-5.2-5.2
	c0-2.9,2.3-5.2,5.2-5.2S78,23.1,78,26C78,28.9,75.6,31.2,72.7,31.2z M89.8,31.2c-2.9,0-5.2-2.4-5.2-5.2c0-2.9,2.3-5.2,5.2-5.2
	c2.9,0,5.2,2.3,5.2,5.2C95,28.9,92.7,31.2,89.8,31.2z M106.9,31.2c-2.9,0-5.2-2.4-5.2-5.2c0-2.9,2.3-5.2,5.2-5.2
	c2.9,0,5.2,2.3,5.2,5.2C112.1,28.9,109.8,31.2,106.9,31.2z"/>
</svg>
