<?xml version="1.0" encoding="utf-8"?>
<!-- Generator: Adobe Illustrator 23.0.3, SVG Export Plug-In . SVG Version: 6.00 Build 0)  -->
<svg version="1.1" id="Layer_1" xmlns="http://www.w3.org/2000/svg" xmlns:xlink="http://www.w3.org/1999/xlink" x="0px" y="0px"
	 viewBox="0 0 74.7 104.5" style="enable-background:new 0 0 74.7 104.5;" xml:space="preserve">
<style type="text/css">
	.st0{fill:url(#SVGID_1_);}
	.st1{fill:url(#SVGID_2_);}
</style>
<g>
	<linearGradient id="SVGID_1_" gradientUnits="userSpaceOnUse" x1="4.887402e-02" y1="52.2425" x2="74.6548" y2="52.2425">
		<stop  offset="0" style="stop-color:#2C7DE9"/>
		<stop  offset="0.1176" style="stop-color:#2C77E5"/>
		<stop  offset="0.67" style="stop-color:#2B5DD6"/>
		<stop  offset="1" style="stop-color:#2B53D0"/>
	</linearGradient>
	<path class="st0" d="M74.7,14.3C74.7,6.5,68.5,0,60.8,0C53.2,0,47,6.5,47,14.3c0,7.9,6.2,14.3,13.8,14.3
		C68.5,28.6,74.7,22.2,74.7,14.3z M1.2,79.7c1.1,2.4,3.1,2.9,5.6,3c1.9,0,3.8,0,5.8-0.1c0.1,1.5,0.2,3,0.4,4.6
		c0.2,1.9,0.3,3.7,0.5,5.6c0.1,1.5,0.3,2.9,0.4,4.4c0.1,0.9,0.2,1.8,0.4,2.7c0.1,0.3,0.1,0.6,0.2,1c0.5,1.8,1.7,3.1,3.6,3.5
		c0.7,0.1,1.3,0,2,0c2.9-0.1,3.5-2.8,3.6-4c0-0.1,0-0.1,0-0.2l0.1-1.5l0.8-16.2c1.7,0,3.4-0.1,5.1-0.2c6.5-0.5,6.4-8,6.3-12.8
		c-0.1-5.6,0.1-10.5,2-15.8c0.7-2,1.7-3.9,2.9-5.6c0.3-0.4,2.8-3.1,3.9-4.3l0.4,5.7c0.2,1.8,0.5,2.9,1.8,3.7
		c1.4,0.9,6.6,3.5,10.5,5.4c-5.5,2.9-5,11.7-5,11.7l0.5,31.7c0.3,3.1,1.7,2.3,1.7,2.3c2.6,0,2.1-2.2,2.1-2.2l-0.2-29.6
		c0.2-12.8,6.6-11.3,6.6-11.3c5.2,0.4,4.4,6.4,4.4,6.4c0.3,2,2.9,1.3,2.9,1.3c1.5-0.2,0.9-4.1,0.9-4.1c-0.3-4-2.7-5.8-5.1-6.6
		c-0.8-1.2-2.4-2.3-3.6-3c-1.6-1.1-5.6-3.8-9.6-6.5c0.2-4.3,0.5-8.5,0.7-12.8c0.4-7.5-5.4-16.8-15.2-14.4c-1.4,0.3-2.5,0.7-3.5,1.1
		c0,0,0,0,0,0c0,0-0.1,0-0.1,0c-1.9,0.8-3.4,1.6-5.6,2.9c-0.9,0.5-1.8,1-2.9,1.6c-1.2,0.7-2.3,1.4-3.5,2.2
		c-3.8,2.4-7.8,5.4-10.7,8.4c0,0-7.8,7.3-10.4,21.6c-0.5,2.6-0.9,5.2-1.1,7.9C0.1,71.2-0.4,75.9,1.2,79.7z"/>
	<linearGradient id="SVGID_2_" gradientUnits="userSpaceOnUse" x1="0" y1="52.2412" x2="74.7002" y2="52.2412">
		<stop  offset="0" style="stop-color:#2C7DE9"/>
		<stop  offset="0.1176" style="stop-color:#2C77E5"/>
		<stop  offset="0.67" style="stop-color:#2B5DD6"/>
		<stop  offset="1" style="stop-color:#2B53D0"/>
	</linearGradient>
	<path class="st1" d="M52.6,102l-0.5-31.7c0,0,0-0.2,0-0.5l0,0c0-1.9,0.3-8.7,5-11.2l0,0c-3.9-1.9-9-4.4-10.4-5.4l0,0
		c-1.3-0.8-1.6-1.9-1.8-3.8l0,0l-0.4-5.6c-1.2,1.3-3.6,3.9-3.9,4.3l0,0c-1.2,1.7-2.1,3.6-2.9,5.6l0,0c-1.7,4.5-2,8.8-2,13.4l0,0
		c0,0.8,0,1.6,0,2.4l0,0c0,0.6,0,1.3,0,2l0,0c0,4.6-0.6,10.4-6.3,10.9l0,0c-1.7,0.1-3.4,0.2-5,0.1l0,0l-0.8,16.2l-0.1,1.5
		c0,0.1,0,0.1,0,0.2l0,0c-0.1,1.2-0.7,3.9-3.6,4l0,0c-0.4,0-0.8,0-1.2,0l0,0c-0.3,0-0.5,0-0.8-0.1l0,0c-2-0.4-3.2-1.6-3.6-3.5l0,0
		c-0.1-0.3-0.1-0.6-0.2-1l0,0c-0.2-0.9-0.3-1.8-0.4-2.7l0,0c-0.1-1.5-0.3-3-0.4-4.4l0,0c-0.1-1.9-0.3-3.8-0.5-5.6l0,0
		c-0.1-1.5-0.3-3-0.3-4.5l0,0c-1.5,0.1-3,0.1-4.5,0.1l0,0c-0.4,0-0.8,0-1.2,0l0,0c-2.4-0.1-4.5-0.6-5.6-3l0,0l0,0l0,0
		c1,2.4,3.1,2.9,5.5,3l0,0c0.4,0,0.8,0,1.2,0l0,0c1.5,0,3-0.1,4.6-0.1l0,0c0.1,1.5,0.2,3,0.4,4.6l0,0c0.2,1.9,0.3,3.7,0.5,5.6l0,0
		c0.1,1.5,0.3,2.9,0.4,4.4l0,0c0.1,0.9,0.2,1.8,0.4,2.7l0,0c0.1,0.3,0.1,0.6,0.2,1l0,0c0.5,1.8,1.6,3.1,3.6,3.4l0,0
		c0.3,0,0.6,0.1,0.8,0.1l0,0c0.4,0,0.8,0,1.2,0l0,0c2.8-0.1,3.4-2.8,3.5-3.9l0,0c0-0.1,0-0.1,0-0.2l0,0l0.1-1.5l0.8-16.3
		c1.7,0,3.4,0,5.1-0.2l0,0c5.7-0.4,6.3-6.1,6.3-10.8l0,0c0-0.7,0-1.3,0-2l0,0c0-0.8,0-1.6,0-2.4l0,0c0-4.6,0.4-8.9,2-13.4l0,0
		c0.7-2,1.7-3.9,2.9-5.6l0,0c0.3-0.4,2.8-3.1,3.9-4.3l0,0c0,0,0,0,0,0l0,0c0,0,0,0,0,0l0,0l0.4,5.7c0.2,1.8,0.5,2.9,1.7,3.7l0,0
		c1.4,0.9,6.6,3.5,10.5,5.4l0,0c0,0,0,0,0,0l0,0c0,0,0,0,0,0l0,0c-4.7,2.4-5,9.3-5,11.2l0,0c0,0.3,0,0.5,0,0.5l0,0L52.6,102
		c0.3,2,1,2.3,1.4,2.3l0,0c0.2,0,0.3-0.1,0.4-0.1l0,0c1.8,0,2.1-1.1,2.1-1.7l0,0c0-0.3,0-0.4,0-0.4l0,0l-0.3-29.6
		c0.1-10.4,4.4-11.4,6.1-11.4l0,0c0.4,0,0.6,0.1,0.6,0.1l0,0c4,0.3,4.5,3.9,4.5,5.6l0,0c0,0.5,0,0.8,0,0.8h0c0.1,1.1,1,1.4,1.8,1.4
		l0,0c0.5,0,1-0.1,1-0.1l0,0c0.8-0.1,1-1.3,1-2.3l0,0c0-0.9-0.1-1.7-0.1-1.7l0,0c-0.3-4-2.7-5.8-5.1-6.6l0,0c-0.8-1.2-2.4-2.3-3.5-3
		l0,0c-1.6-1.1-5.6-3.8-9.7-6.5l0,0c0.2-4.3,0.5-8.5,0.7-12.8l0,0c0-0.2,0-0.4,0-0.7l0,0c0-6.5-4.4-14.1-12.1-14.1l0,0
		c-1,0-2,0.1-3.1,0.4l0,0c-1.4,0.3-2.5,0.7-3.5,1.1l0,0c0,0,0,0,0,0l0,0c0,0-0.1,0-0.1,0l0,0c-1.9,0.8-3.4,1.6-5.6,2.9l0,0
		c-0.9,0.5-1.8,1-2.9,1.6l0,0c-1.2,0.7-2.3,1.4-3.5,2.2l0,0c-3.8,2.4-7.8,5.4-10.7,8.4l0,0c0,0-7.7,7.3-10.4,21.6l0,0
		c-0.5,2.6-0.9,5.2-1.1,7.8l0,0c-0.1,1.8-0.3,3.8-0.3,5.7l0,0c0,2.4,0.3,4.7,1.2,6.8l0,0l0,0l0,0C0.3,77.6,0,75.3,0,72.9l0,0
		c0-2,0.2-3.9,0.3-5.7l0,0c0.2-2.6,0.6-5.3,1.1-7.9l0,0C4.1,45,11.8,37.7,11.8,37.7l0,0c2.9-3.1,6.9-6,10.7-8.5l0,0
		c1.2-0.8,2.4-1.5,3.5-2.2l0,0c1-0.6,2-1.1,2.9-1.6l0,0c2.1-1.2,3.7-2.1,5.6-2.9l0,0c0,0,0.1,0,0.1,0l0,0c0,0,0,0,0,0l0,0
		c1-0.4,2.1-0.7,3.5-1.1l0,0c1.1-0.3,2.1-0.4,3.1-0.4l0,0c7.7,0,12.2,7.6,12.2,14.2l0,0c0,0.2,0,0.5,0,0.7l0,0
		c-0.2,4.2-0.5,8.5-0.7,12.7l0,0c4,2.7,8,5.4,9.6,6.5l0,0c1.1,0.7,2.8,1.8,3.6,3l0,0c2.4,0.8,4.9,2.6,5.1,6.6l0,0
		c0,0,0.1,0.8,0.1,1.7l0,0c0,1.1-0.2,2.3-1,2.4l0,0c0,0-0.5,0.1-1,0.1l0,0c-0.8,0-1.7-0.3-1.9-1.5l0,0c0,0,0-0.3,0-0.8l0,0
		c0-1.7-0.5-5.2-4.4-5.5l0,0c0,0-0.2-0.1-0.6-0.1l0,0c-1.6,0-5.8,1-6,11.3l0,0l0.2,29.6c0,0,0,0.2,0,0.5l0,0c0,0.6-0.3,1.8-2.1,1.8
		l0,0c0,0-0.2,0.1-0.4,0.1l0,0C53.5,104.5,52.8,104.1,52.6,102L52.6,102z M47,14.3C47,6.4,53.2,0,60.8,0l0,0
		c7.7,0,13.8,6.4,13.9,14.3l0,0c0,7.9-6.2,14.3-13.9,14.3l0,0C53.2,28.6,47,22.2,47,14.3L47,14.3z M47.1,14.3
		c0,7.9,6.1,14.2,13.8,14.2l0,0c7.6,0,13.8-6.4,13.8-14.2l0,0c0-7.8-6.2-14.2-13.8-14.2l0,0C53.2,0.1,47.1,6.5,47.1,14.3L47.1,14.3z
		"/>
</g>
</svg>
