<?xml version="1.0" encoding="utf-8"?>
<!-- Generator: Adobe Illustrator 23.0.3, SVG Export Plug-In . SVG Version: 6.00 Build 0)  -->
<svg version="1.1" id="Layer_1" xmlns="http://www.w3.org/2000/svg" xmlns:xlink="http://www.w3.org/1999/xlink" x="0px" y="0px"
	 viewBox="0 0 97.2 74.4" style="enable-background:new 0 0 97.2 74.4;" xml:space="preserve">
<style type="text/css">
	.st0{fill:#3A90EF;}
	.st1{fill:none;stroke:#383A66;stroke-width:5;stroke-miterlimit:10;}
	.st2{fill:url(#SVGID_1_);}
	.st3{fill:#B8DFFF;}
</style>
<path class="st0" d="M97.2,70.4c0,2.2-1.8,4-4,4H4c-2.2,0-4-1.8-4-4V17.7c0-2.2,1.8-4,4-4h89.2c2.2,0,4,1.8,4,4V70.4z"/>
<path class="st1" d="M48.6,40.4"/>
<linearGradient id="SVGID_1_" gradientUnits="userSpaceOnUse" x1="1.202594e-05" y1="22.5757" x2="97.1523" y2="22.5757">
	<stop  offset="0" style="stop-color:#2C7DE9"/>
	<stop  offset="0.1176" style="stop-color:#2C77E5"/>
	<stop  offset="0.67" style="stop-color:#2B5DD6"/>
	<stop  offset="1" style="stop-color:#2B53D0"/>
</linearGradient>
<path class="st2" d="M93.2,13.7h-8.7H68.2V3.5c0-1.9-1.5-3.5-3.3-3.5H32.3C30.5,0,29,1.6,29,3.5v10.2H11.3H4c-2.2,0-4,1.8-4,4v3.7
	v10.1c7.8,8,26.6,13.6,48.5,13.6c22,0,40.9-5.7,48.6-13.8v-5v-8.7C97.2,15.5,95.4,13.7,93.2,13.7z M34,13.7V5h29.2v8.7H34z"/>
<rect x="45.3" y="39" class="st3" width="6.6" height="12.3"/>
</svg>
