<?xml version="1.0" encoding="utf-8"?>
<!-- Generator: Adobe Illustrator 23.0.3, SVG Export Plug-In . SVG Version: 6.00 Build 0)  -->
<svg version="1.1" id="Layer_1" xmlns="http://www.w3.org/2000/svg" xmlns:xlink="http://www.w3.org/1999/xlink" x="0px" y="0px"
	 viewBox="0 0 71.8 63.1" style="enable-background:new 0 0 71.8 63.1;" xml:space="preserve">
<style type="text/css">
	.st0{fill:url(#SVGID_1_);}
	.st1{fill:url(#SVGID_2_);}
</style>
<g>
	<linearGradient id="SVGID_1_" gradientUnits="userSpaceOnUse" x1="0" y1="17.511" x2="71.822" y2="17.511">
		<stop  offset="0" style="stop-color:#2C7DE9"/>
		<stop  offset="0.1176" style="stop-color:#2C77E5"/>
		<stop  offset="0.67" style="stop-color:#2B5DD6"/>
		<stop  offset="1" style="stop-color:#2B53D0"/>
	</linearGradient>
	<path class="st0" d="M71.6,34.2L36.7,0.3c-0.4-0.4-1.2-0.4-1.6,0L22.2,12.9c-0.4,0.4-0.8,0.3-0.8-0.3V8.4c0-0.6-0.5-1.1-1.1-1.1
		h-7.8c-0.6,0-1.1,0.5-1.1,1.1v13.9c0,0.6-0.4,1.5-0.8,1.9l-10.3,10C-0.2,34.7,0,35,0.6,35h9.7c0.6,0,1.5-0.3,1.9-0.8L35.1,12
		c0.4-0.4,1.2-0.4,1.6,0l22.9,22.3c0.4,0.4,1.3,0.8,1.9,0.8h9.7C71.9,35,72,34.7,71.6,34.2z"/>
	<linearGradient id="SVGID_2_" gradientUnits="userSpaceOnUse" x1="11.712" y1="39.924" x2="60.1837" y2="39.924">
		<stop  offset="0" style="stop-color:#2C7DE9"/>
		<stop  offset="0.1176" style="stop-color:#2C77E5"/>
		<stop  offset="0.67" style="stop-color:#2B5DD6"/>
		<stop  offset="1" style="stop-color:#2B53D0"/>
	</linearGradient>
	<path class="st1" d="M36.7,17.1c-0.4-0.4-1.2-0.4-1.6,0l-22.6,22c-0.4,0.4-0.8,1.3-0.8,1.9v4.1c0,0.6,0,1.6,0,2.2V62
		c0,0.6,0.5,1.1,1.1,1.1h13.5c0.6,0,1.1-0.5,1.1-1.1V48.1c0-0.6,0-1.2,0-1.3c0,0,0,0,0-0.1c0-4.7,3.8-8.6,8.6-8.6s8.6,3.8,8.6,8.6
		c0,0.1,0,0.1,0,0.1c0,0.1,0,0.7,0,1.3V62c0,0.6,0.5,1.1,1.1,1.1h13.5c0.6,0,1.1-0.5,1.1-1.1V43.6c0-0.6,0-1.1,0-1.1s0-0.5,0-1.1V41
		c0-0.6-0.4-1.5-0.8-1.9L36.7,17.1z"/>
</g>
</svg>
