<?xml version="1.0" encoding="utf-8"?>
<!-- Generator: Adobe Illustrator 23.0.3, SVG Export Plug-In . SVG Version: 6.00 Build 0)  -->
<svg version="1.1" id="Layer_1" xmlns="http://www.w3.org/2000/svg" xmlns:xlink="http://www.w3.org/1999/xlink" x="0px" y="0px"
	 viewBox="0 0 24.5 24.5" style="enable-background:new 0 0 24.5 24.5;" xml:space="preserve">
<style type="text/css">
	.st0{fill:#222222;stroke:#222222;stroke-width:0.5;stroke-miterlimit:10;}
</style>
<g>
	<g>
		<path class="st0" d="M12.3,24.3c-6.6,0-12-5.4-12-12s5.4-12,12-12s12,5.4,12,12S18.9,24.3,12.3,24.3z M12.3,1.3
			c-6.1,0-11,4.9-11,11s4.9,11,11,11s11-4.9,11-11S18.3,1.3,12.3,1.3z"/>
	</g>
	<g>
		<path class="st0" d="M15.8,16.3c-0.1,0-0.2,0-0.3-0.1c-0.2-0.2-0.2-0.4-0.1-0.6l0.6-1.3H8.6l0.6,1.3c0.1,0.2,0.1,0.4-0.1,0.6
			c-0.2,0.2-0.4,0.2-0.6,0.1l-6-3.5c-0.2-0.1-0.2-0.3-0.2-0.4s0.1-0.3,0.2-0.4l6-3.5c0.2-0.1,0.4-0.1,0.6,0.1C9.3,8.5,9.3,8.8,9.2,9
			l-0.6,1.3h7.4L15.3,9c-0.1-0.2-0.1-0.4,0.1-0.6c0.2-0.2,0.4-0.2,0.6-0.1l6,3.5c0.2,0.1,0.2,0.3,0.2,0.4s-0.1,0.3-0.2,0.4l-6,3.5
			C15.9,16.2,15.8,16.3,15.8,16.3z M7.8,13.3h9c0.2,0,0.3,0.1,0.4,0.2c0.1,0.1,0.1,0.3,0,0.5l-0.2,0.5l3.8-2.2L16.9,10l0.2,0.5
			c0.1,0.2,0.1,0.3,0,0.5c-0.1,0.1-0.3,0.2-0.4,0.2h-9c-0.2,0-0.3-0.1-0.4-0.2c-0.1-0.1-0.1-0.3,0-0.5L7.6,10l-3.8,2.2l3.8,2.2
			L7.3,14c-0.1-0.2-0.1-0.3,0-0.5C7.4,13.3,7.6,13.3,7.8,13.3z"/>
	</g>
</g>
</svg>
