<?xml version="1.0" encoding="utf-8"?>
<!-- Generator: Adobe Illustrator 23.0.3, SVG Export Plug-In . SVG Version: 6.00 Build 0)  -->
<svg version="1.1" id="Icons" xmlns="http://www.w3.org/2000/svg" xmlns:xlink="http://www.w3.org/1999/xlink" x="0px" y="0px"
	 viewBox="0 0 86.6 53.3" style="enable-background:new 0 0 86.6 53.3;" xml:space="preserve">
<style type="text/css">
	.st0{fill:#222222;}
</style>
<path class="st0" d="M48.8,25.7l-18.3-13c-0.8-0.5-1.8-0.6-2.6-0.2c-0.8,0.4-1.4,1.3-1.4,2.2v23.5c0,0.9,0.5,1.7,1.2,2.2
	c0.4,0.2,0.8,0.3,1.3,0.3c0.4,0,0.9-0.1,1.2-0.3l18.3-10.4c0.7-0.4,1.2-1.2,1.3-2C49.9,27,49.5,26.2,48.8,25.7z M31.6,33.8V19.5
	l11.1,8L31.6,33.8z M85.5,9.5C84.8,9,83.9,9,83.1,9.3l-14.9,6.5C67.4,6.8,61.2,0,53.5,0h-38C7.1,0,0,8.2,0,17.8v18.2
	c0,9.5,7,17.2,15.6,17.2h38c8.1,0,14.4-6.9,14.7-16.3l14.9,6.3c0.8,0.3,1.7,0.2,2.4-0.2c0.7-0.5,1.1-1.2,1.1-2.1V11.6
	C86.6,10.8,86.2,10,85.5,9.5z M63.3,36.1c0,7-4.2,12.2-9.8,12.2h-38C9.7,48.3,5,42.8,5,36.1V17.8C5,11,9.9,5,15.6,5h38
	c6.1,0,9.8,6.5,9.8,12.8v1.7c0,0.1,0,0.1,0,0.2c0,0.1,0,0.2,0,0.2v11.7c0,0.3,0.1,0.6,0.1,0.8c-0.1,0.3-0.1,0.5-0.1,0.8V36.1z
	 M81.6,37.3l-13.3-5.7V21.2l13.3-5.8V37.3z"/>
</svg>
