<?xml version="1.0" encoding="utf-8"?>
<!-- Generator: Adobe Illustrator 23.0.3, SVG Export Plug-In . SVG Version: 6.00 Build 0)  -->
<svg version="1.1" id="Icons" xmlns="http://www.w3.org/2000/svg" xmlns:xlink="http://www.w3.org/1999/xlink" x="0px" y="0px"
	 viewBox="0 0 80.4 77.4" style="enable-background:new 0 0 80.4 77.4;" xml:space="preserve">
<style type="text/css">
	.st0{fill:#222222;}
</style>
<path class="st0" d="M24.5,77.4c-0.3,0-0.7-0.1-1-0.2c-0.9-0.4-1.5-1.3-1.5-2.3V60.9C9.3,56.8,0,44.3,0,31.1C0,14,14.2,0,31.7,0
	h17.4c17.3,0,31.3,14.2,31.3,31.6c0,17.4-14,31.6-31.3,31.6h-7.4L26.2,76.8C25.7,77.2,25.1,77.4,24.5,77.4z M31.7,5
	C17,5,5,16.7,5,31.1c0,13.3,10.4,23,20.1,25.5c1.1,0.3,1.9,1.3,1.9,2.4v10.4l12.1-10.5c0.5-0.4,1-0.6,1.6-0.6h8.4
	c14.5,0,26.3-12,26.3-26.6C75.4,16.9,63.6,5,49.1,5H31.7z M55.2,28c-2,0-3.7,1.6-3.7,3.7s1.6,3.7,3.7,3.7c2,0,3.7-1.6,3.7-3.7
	S57.2,28,55.2,28z M40.2,28c-2,0-3.7,1.6-3.7,3.7s1.6,3.7,3.7,3.7s3.7-1.6,3.7-3.7S42.2,28,40.2,28z M25.2,28c-2,0-3.7,1.6-3.7,3.7
	s1.6,3.7,3.7,3.7c2,0,3.7-1.6,3.7-3.7S27.2,28,25.2,28z"/>
</svg>
