<?xml version="1.0" encoding="utf-8"?>
<!-- Generator: Adobe Illustrator 23.0.3, SVG Export Plug-In . SVG Version: 6.00 Build 0)  -->
<svg version="1.1" id="레이어_1" xmlns="http://www.w3.org/2000/svg" xmlns:xlink="http://www.w3.org/1999/xlink" x="0px"
	 y="0px" viewBox="0 0 224 224" style="enable-background:new 0 0 224 224;" xml:space="preserve">
<style type="text/css">
	.st0{fill:none;stroke:#222222;stroke-width:16;stroke-linecap:round;stroke-linejoin:round;}
</style>
<path class="st0" d="M38.5,185.5c-9.2-9.2-3.1-28.5-7.8-39.8S8,124.5,8,112s17.8-22,22.7-33.7s-1.4-30.6,7.8-39.8s28.5-3.1,39.8-7.8
	S99.5,8,112,8s22,17.8,33.7,22.7s30.6-1.4,39.8,7.8s3.1,28.5,7.8,39.8S216,99.5,216,112s-17.8,22-22.7,33.7s1.4,30.6-7.8,39.8
	s-28.5,3.1-39.8,7.8S124.5,216,112,216s-22-17.8-33.7-22.7S47.7,194.7,38.5,185.5z"/>
<polyline class="st0" points="156,88 97.3,144 68,116 "/>
</svg>
